<svg width="1280" height="700" viewBox="0 0 1280 700" fill="none" xmlns="http://www.w3.org/2000/svg">
<g clip-path="url(#clip0_65_2)">
<rect width="1280" height="700" fill="#080808"/>
<path d="M474.119 139.21L500.629 148.381L491.458 174.891L464.948 165.72L474.119 139.21ZM500.629 148.381L527.139 157.552L517.968 184.062L491.458 174.891L500.629 148.381ZM491.458 174.891L517.968 184.062L508.797 210.573L482.287 201.401L491.458 174.891ZM482.287 201.401L508.797 210.573L499.625 237.083L473.115 227.911L482.287 201.401ZM455.777 192.23L482.287 201.401L473.115 227.911L446.605 218.74L455.777 192.23ZM464.948 165.72L491.458 174.891L482.287 201.401L455.777 192.23L464.948 165.72ZM517.968 184.062L544.478 193.234L535.307 219.744L508.797 210.573L517.968 184.062ZM544.478 193.234L570.988 202.405L561.817 228.915L535.307 219.744L544.478 193.234ZM535.307 219.744L561.817 228.915L552.646 255.425L526.135 246.254L535.307 219.744ZM526.135 246.254L552.646 255.425L543.474 281.935L516.964 272.764L526.135 246.254ZM499.625 237.083L526.135 246.254L516.964 272.764L490.454 263.593L499.625 237.083ZM508.797 210.573L535.307 219.744L526.135 246.254L499.625 237.083L508.797 210.573ZM561.817 228.915L588.327 238.087L579.156 264.597L552.646 255.425L561.817 228.915ZM588.327 238.087L614.837 247.258L605.666 273.768L579.156 264.597L588.327 238.087ZM579.156 264.597L605.666 273.768L596.494 300.278L569.984 291.107L579.156 264.597ZM569.984 291.107L596.494 300.278L587.323 326.788L560.813 317.617L569.984 291.107ZM543.474 281.935L569.984 291.107L560.813 317.617L534.303 308.445L543.474 281.935ZM552.646 255.425L579.156 264.597L569.984 291.107L543.474 281.935L552.646 255.425ZM676.025 327.792L702.535 336.963L693.363 363.473L666.853 354.302L676.025 327.792ZM640.343 345.131L666.853 354.302L657.682 380.812L631.172 371.641L640.343 345.131ZM631.172 371.641L657.682 380.812L648.511 407.322L622.001 398.151L631.172 371.641ZM649.515 318.621L676.025 327.792L666.853 354.302L640.343 345.131L649.515 318.621ZM666.853 354.302L693.363 363.473L684.192 389.983L657.682 380.812L666.853 354.302ZM657.682 380.812L684.192 389.983L675.021 416.493L648.511 407.322L657.682 380.812ZM604.662 362.469L631.172 371.641L622.001 398.151L595.49 388.98L604.662 362.469ZM578.152 353.298L604.662 362.469L595.49 388.98L568.98 379.808L578.152 353.298ZM587.323 326.788L613.833 335.959L604.662 362.469L578.152 353.298L587.323 326.788ZM613.833 335.959L640.343 345.131L631.172 371.641L604.662 362.469L613.833 335.959ZM623.004 309.449L649.515 318.621L640.343 345.131L613.833 335.959L623.004 309.449ZM632.176 282.939L658.686 292.111L649.515 318.621L623.004 309.449L632.176 282.939ZM605.666 273.768L632.176 282.939L623.004 309.449L596.494 300.278L605.666 273.768ZM596.494 300.278L623.004 309.449L613.833 335.959L587.323 326.788L596.494 300.278ZM560.813 317.617L587.323 326.788L578.152 353.298L551.642 344.127L560.813 317.617ZM551.642 344.127L578.152 353.298L568.98 379.808L542.47 370.637L551.642 344.127ZM525.132 334.955L551.642 344.127L542.47 370.637L515.96 361.466L525.132 334.955ZM542.47 370.637L568.98 379.808L559.809 406.318L533.299 397.147L542.47 370.637ZM568.98 379.808L595.49 388.98L586.319 415.49L559.809 406.318L568.98 379.808ZM595.49 388.98L622.001 398.151L612.829 424.661L586.319 415.49L595.49 388.98ZM533.299 397.147L559.809 406.318L550.638 432.828L524.128 423.657L533.299 397.147ZM506.789 387.976L533.299 397.147L524.128 423.657L497.618 414.486L506.789 387.976ZM480.279 378.804L506.789 387.976L497.618 414.486L471.108 405.314L480.279 378.804ZM489.45 352.294L515.96 361.466L506.789 387.976L480.279 378.804L489.45 352.294ZM515.96 361.466L542.47 370.637L533.299 397.147L506.789 387.976L515.96 361.466ZM462.94 343.123L489.45 352.294L480.279 378.804L453.769 369.633L462.94 343.123ZM453.769 369.633L480.279 378.804L471.108 405.314L444.597 396.143L453.769 369.633ZM444.597 396.143L471.108 405.314L461.936 431.824L435.426 422.653L444.597 396.143ZM471.108 405.314L497.618 414.486L488.446 440.996L461.936 431.824L471.108 405.314ZM418.087 386.972L444.597 396.143L435.426 422.653L408.916 413.482L418.087 386.972ZM427.259 360.462L453.769 369.633L444.597 396.143L418.087 386.972L427.259 360.462ZM400.749 351.29L427.259 360.462L418.087 386.972L391.577 377.8L400.749 351.29ZM391.577 377.8L418.087 386.972L408.916 413.482L382.406 404.31L391.577 377.8ZM382.406 404.31L408.916 413.482L399.745 439.992L373.235 430.82L382.406 404.31ZM408.916 413.482L435.426 422.653L426.255 449.163L399.745 439.992L408.916 413.482Z" fill="url(#paint0_linear_65_2)" fill-opacity="0.19"/>
<path d="M422.284 32.2283L448.794 41.3996L439.623 67.9097L413.113 58.7384L422.284 32.2283ZM413.113 58.7384L439.623 67.9097L430.452 94.4198L403.942 85.2485L413.113 58.7384ZM403.942 85.2485L430.452 94.4198L421.281 120.93L394.77 111.759L403.942 85.2485ZM377.432 76.0771L403.942 85.2485L394.77 111.759L368.26 102.587L377.432 76.0771ZM368.26 102.587L394.77 111.759L385.599 138.269L359.089 129.097L368.26 102.587ZM359.089 129.097L385.599 138.269L376.428 164.779L349.918 155.607L359.089 129.097ZM349.918 155.607L376.428 164.779L367.257 191.289L340.746 182.117L349.918 155.607ZM323.408 146.436L349.918 155.607L340.746 182.117L314.236 172.946L323.408 146.436ZM314.236 172.946L340.746 182.117L331.575 208.627L305.065 199.456L314.236 172.946ZM305.065 199.456L331.575 208.627L322.404 235.138L295.894 225.966L305.065 199.456ZM295.894 225.966L322.404 235.138L313.232 261.648L286.722 252.476L295.894 225.966ZM269.384 216.795L295.894 225.966L286.722 252.476L260.212 243.305L269.384 216.795ZM260.212 243.305L286.722 252.476L277.551 278.986L251.041 269.815L260.212 243.305ZM251.041 269.815L277.551 278.986L268.38 305.496L241.87 296.325L251.041 269.815ZM241.87 296.325L268.38 305.496L259.208 332.007L232.698 322.835L241.87 296.325ZM215.36 287.154L241.87 296.325L232.698 322.835L206.188 313.664L215.36 287.154ZM206.188 313.664L232.698 322.835L223.527 349.345L197.017 340.174L206.188 313.664ZM197.017 340.174L223.527 349.345L214.356 375.855L187.846 366.684L197.017 340.174ZM187.846 366.684L214.356 375.855L205.184 402.365L178.674 393.194L187.846 366.684ZM161.336 357.513L187.846 366.684L178.674 393.194L152.164 384.023L161.336 357.513ZM152.164 384.023L178.674 393.194L169.503 419.704L142.993 410.533L152.164 384.023ZM142.993 410.533L169.503 419.704L160.332 446.214L133.822 437.043L142.993 410.533ZM133.822 437.043L160.332 446.214L151.16 472.724L124.65 463.553L133.822 437.043ZM107.312 427.872L133.822 437.043L124.65 463.553L98.1402 454.382L107.312 427.872ZM116.483 401.361L142.993 410.533L133.822 437.043L107.312 427.872L116.483 401.361ZM89.9728 392.19L116.483 401.361L107.312 427.872L80.8015 418.7L89.9728 392.19ZM80.8015 418.7L107.312 427.872L98.1402 454.382L71.6301 445.21L80.8015 418.7ZM99.1441 365.68L125.654 374.851L116.483 401.361L89.9728 392.19L99.1441 365.68ZM125.654 374.851L152.164 384.023L142.993 410.533L116.483 401.361L125.654 374.851ZM395.774 23.057L422.284 32.2283L413.113 58.7384L386.603 49.5671L395.774 23.057ZM369.264 13.8857L395.774 23.057L386.603 49.5671L360.093 40.3958L369.264 13.8857ZM360.093 40.3958L386.603 49.5671L377.432 76.0771L350.922 66.9058L360.093 40.3958ZM386.603 49.5671L413.113 58.7384L403.942 85.2485L377.432 76.0771L386.603 49.5671ZM350.922 66.9058L377.432 76.0771L368.26 102.587L341.75 93.4159L350.922 66.9058ZM341.75 93.4159L368.26 102.587L359.089 129.097L332.579 119.926L341.75 93.4159ZM332.579 119.926L359.089 129.097L349.918 155.607L323.408 146.436L332.579 119.926ZM306.069 110.755L332.579 119.926L323.408 146.436L296.898 137.265L306.069 110.755ZM315.24 84.2446L341.75 93.4159L332.579 119.926L306.069 110.755L315.24 84.2446ZM296.898 137.265L323.408 146.436L314.236 172.946L287.726 163.775L296.898 137.265ZM287.726 163.775L314.236 172.946L305.065 199.456L278.555 190.285L287.726 163.775ZM278.555 190.285L305.065 199.456L295.894 225.966L269.384 216.795L278.555 190.285ZM261.216 154.603L287.726 163.775L278.555 190.285L252.045 181.113L261.216 154.603ZM252.045 181.113L278.555 190.285L269.384 216.795L242.874 207.624L252.045 181.113ZM242.874 207.624L269.384 216.795L260.212 243.305L233.702 234.134L242.874 207.624ZM233.702 234.134L260.212 243.305L251.041 269.815L224.531 260.644L233.702 234.134ZM224.531 260.644L251.041 269.815L241.87 296.325L215.36 287.154L224.531 260.644ZM198.021 251.472L224.531 260.644L215.36 287.154L188.85 277.982L198.021 251.472ZM207.192 224.962L233.702 234.134L224.531 260.644L198.021 251.472L207.192 224.962ZM188.85 277.982L215.36 287.154L206.188 313.664L179.678 304.493L188.85 277.982ZM179.678 304.493L206.188 313.664L197.017 340.174L170.507 331.003L179.678 304.493ZM170.507 331.003L197.017 340.174L187.846 366.684L161.336 357.513L170.507 331.003ZM143.997 321.831L170.507 331.003L161.336 357.513L134.826 348.341L143.997 321.831ZM153.168 295.321L179.678 304.493L170.507 331.003L143.997 321.831L153.168 295.321ZM134.826 348.341L161.336 357.513L152.164 384.023L125.654 374.851L134.826 348.341Z" fill="url(#paint1_linear_65_2)" fill-opacity="0.19"/>
<path d="M156.257 29.2434L147.086 55.7535L120.576 46.5822L129.747 20.0721L156.257 29.2434ZM129.747 20.0721L120.576 46.5822L94.066 37.4109L103.237 10.9008L129.747 20.0721ZM120.576 46.5822L111.405 73.0923L84.8947 63.921L94.066 37.4109L120.576 46.5822ZM111.405 73.0923L102.233 99.6023L75.7234 90.431L84.8947 63.921L111.405 73.0923ZM137.915 82.2636L128.744 108.774L102.233 99.6023L111.405 73.0923L137.915 82.2636ZM147.086 55.7535L137.915 82.2636L111.405 73.0923L120.576 46.5822L147.086 55.7535ZM94.066 37.4109L84.8947 63.921L58.3846 54.7496L67.556 28.2395L94.066 37.4109ZM67.556 28.2395L58.3846 54.7496L31.8746 45.5783L41.0459 19.0682L67.556 28.2395ZM58.3846 54.7496L49.2133 81.2597L22.7033 72.0884L31.8746 45.5783L58.3846 54.7496ZM49.2133 81.2597L40.042 107.77L13.5319 98.5984L22.7033 72.0884L49.2133 81.2597ZM75.7234 90.431L66.5521 116.941L40.042 107.77L49.2133 81.2597L75.7234 90.431ZM84.8947 63.921L75.7234 90.431L49.2133 81.2597L58.3846 54.7496L84.8947 63.921ZM31.8746 45.5783L22.7033 72.0884L-3.80678 62.917L5.36454 36.407L31.8746 45.5783ZM5.36454 36.407L-3.80678 62.917L-30.3169 53.7457L-21.1455 27.2357L5.36454 36.407ZM-3.80678 62.917L-12.9781 89.4271L-39.4882 80.2558L-30.3169 53.7457L-3.80678 62.917ZM-12.9781 89.4271L-22.1494 115.937L-48.6595 106.766L-39.4882 80.2558L-12.9781 89.4271ZM13.5319 98.5984L4.36062 125.108L-22.1494 115.937L-12.9781 89.4271L13.5319 98.5984ZM22.7033 72.0884L13.5319 98.5984L-12.9781 89.4271L-3.80678 62.917L22.7033 72.0884ZM-119.018 52.7418L-128.19 79.2519L-154.7 70.0805L-145.528 43.5705L-119.018 52.7418ZM-101.68 88.4232L-110.851 114.933L-137.361 105.762L-128.19 79.2519L-101.68 88.4232ZM-110.851 114.933L-120.022 141.443L-146.532 132.272L-137.361 105.762L-110.851 114.933ZM-92.5083 61.9131L-101.68 88.4232L-128.19 79.2519L-119.018 52.7418L-92.5083 61.9131ZM-128.19 79.2519L-137.361 105.762L-163.871 96.5906L-154.7 70.0805L-128.19 79.2519ZM-137.361 105.762L-146.532 132.272L-173.042 123.101L-163.871 96.5906L-137.361 105.762ZM-84.3409 124.105L-93.5122 150.615L-120.022 141.443L-110.851 114.933L-84.3409 124.105ZM-57.8308 133.276L-67.0022 159.786L-93.5122 150.615L-84.3409 124.105L-57.8308 133.276ZM-48.6595 106.766L-57.8308 133.276L-84.3409 124.105L-75.1696 97.5945L-48.6595 106.766ZM-75.1696 97.5945L-84.3409 124.105L-110.851 114.933L-101.68 88.4232L-75.1696 97.5945ZM-65.9982 71.0845L-75.1696 97.5945L-101.68 88.4232L-92.5083 61.9131L-65.9982 71.0845ZM-56.8269 44.5744L-65.9982 71.0845L-92.5083 61.9131L-83.337 35.4031L-56.8269 44.5744ZM-30.3169 53.7457L-39.4882 80.2558L-65.9982 71.0845L-56.8269 44.5744L-30.3169 53.7457ZM-39.4882 80.2558L-48.6595 106.766L-75.1696 97.5945L-65.9982 71.0845L-39.4882 80.2558ZM-22.1494 115.937L-31.3208 142.447L-57.8308 133.276L-48.6595 106.766L-22.1494 115.937ZM-31.3208 142.447L-40.4921 168.957L-67.0022 159.786L-57.8308 133.276L-31.3208 142.447ZM-4.81071 151.619L-13.982 178.129L-40.4921 168.957L-31.3208 142.447L-4.81071 151.619ZM-40.4921 168.957L-49.6634 195.467L-76.1735 186.296L-67.0022 159.786L-40.4921 168.957ZM-67.0022 159.786L-76.1735 186.296L-102.684 177.125L-93.5122 150.615L-67.0022 159.786ZM-93.5122 150.615L-102.684 177.125L-129.194 167.953L-120.022 141.443L-93.5122 150.615ZM-49.6634 195.467L-58.8347 221.977L-85.3448 212.806L-76.1735 186.296L-49.6634 195.467ZM-23.1534 204.639L-32.3247 231.149L-58.8347 221.977L-49.6634 195.467L-23.1534 204.639ZM3.35669 213.81L-5.81464 240.32L-32.3247 231.149L-23.1534 204.639L3.35669 213.81ZM12.528 187.3L3.35669 213.81L-23.1534 204.639L-13.982 178.129L12.528 187.3ZM-13.982 178.129L-23.1534 204.639L-49.6634 195.467L-40.4921 168.957L-13.982 178.129ZM39.0381 196.471L29.8668 222.981L3.35669 213.81L12.528 187.3L39.0381 196.471ZM29.8668 222.981L20.6954 249.491L-5.81464 240.32L3.35669 213.81L29.8668 222.981ZM20.6954 249.491L11.5241 276.001L-14.986 266.83L-5.81464 240.32L20.6954 249.491ZM-5.81464 240.32L-14.986 266.83L-41.496 257.659L-32.3247 231.149L-5.81464 240.32ZM47.2055 258.663L38.0342 285.173L11.5241 276.001L20.6954 249.491L47.2055 258.663ZM56.3768 232.153L47.2055 258.663L20.6954 249.491L29.8668 222.981L56.3768 232.153ZM82.8869 241.324L73.7156 267.834L47.2055 258.663L56.3768 232.153L82.8869 241.324ZM73.7156 267.834L64.5442 294.344L38.0342 285.173L47.2055 258.663L73.7156 267.834ZM64.5442 294.344L55.3729 320.854L28.8628 311.683L38.0342 285.173L64.5442 294.344ZM38.0342 285.173L28.8628 311.683L2.35281 302.512L11.5241 276.001L38.0342 285.173Z" fill="url(#paint2_linear_65_2)" fill-opacity="0.19"/>
</g>
<defs>
<linearGradient id="paint0_linear_65_2" x1="606.67" y1="185.066" x2="505.785" y2="476.677" gradientUnits="userSpaceOnUse">
<stop stop-color="white"/>
<stop offset="0.907708" stop-color="#999999" stop-opacity="0"/>
</linearGradient>
<linearGradient id="paint1_linear_65_2" x1="342.754" y1="4.71435" x2="177.67" y2="481.896" gradientUnits="userSpaceOnUse">
<stop stop-color="white"/>
<stop offset="0.907708" stop-color="#999999" stop-opacity="0"/>
</linearGradient>
<linearGradient id="paint2_linear_65_2" x1="23.7072" y1="-16.6132" x2="-77.1774" y2="274.998" gradientUnits="userSpaceOnUse">
<stop stop-color="white"/>
<stop offset="0.907708" stop-color="#999999" stop-opacity="0"/>
</linearGradient>
<clipPath id="clip0_65_2">
<rect width="1280" height="700" fill="white"/>
</clipPath>
</defs>
</svg>
