<svg width="40" height="40" viewBox="0 0 40 40" fill="none" xmlns="http://www.w3.org/2000/svg">
<circle cx="20" cy="20" r="20" fill="#141313" fill-opacity="0.05"/>
<path fill-rule="evenodd" clip-rule="evenodd" d="M13.3327 14.1667C13.3327 13.7065 13.7058 13.3334 14.166 13.3334H25.8327C26.2929 13.3334 26.666 13.7065 26.666 14.1667V25.8334C26.666 26.2937 26.2929 26.6667 25.8327 26.6667L24.9993 26.6667C24.9993 24.3656 23.1339 22.5001 20.8327 22.5001H19.166C16.8648 22.5001 14.9993 24.3656 14.9993 26.6667L14.166 26.6667C13.7058 26.6667 13.3327 26.2937 13.3327 25.8334V14.1667ZM16.666 26.6667H23.3327C23.3327 25.286 22.2134 24.1667 20.8327 24.1667H19.166C17.7853 24.1667 16.666 25.286 16.666 26.6667ZM14.166 11.6667C12.7853 11.6667 11.666 12.786 11.666 14.1667V25.8334C11.666 27.2141 12.7853 28.3334 14.166 28.3334H25.8327C27.2134 28.3334 28.3327 27.2141 28.3327 25.8334V14.1667C28.3327 12.786 27.2134 11.6667 25.8327 11.6667H14.166ZM18.3327 18.3334C18.3327 19.2539 19.0789 20.0001 19.9993 20.0001C20.9198 20.0001 21.666 19.2539 21.666 18.3334C21.666 17.4129 20.9198 16.6667 19.9993 16.6667C19.0789 16.6667 18.3327 17.4129 18.3327 18.3334ZM19.9993 15.0001C18.1584 15.0001 16.666 16.4925 16.666 18.3334C16.666 20.1744 18.1584 21.6667 19.9993 21.6667C21.8403 21.6667 23.3327 20.1744 23.3327 18.3334C23.3327 16.4925 21.8403 15.0001 19.9993 15.0001Z" fill="#3F8E00"/>
</svg>
