<svg width="24" height="24" viewBox="0 0 24 24" fill="none" xmlns="http://www.w3.org/2000/svg">
<g clip-path="url(#clip0_4_227)">
<rect width="24" height="24" rx="12" fill="white"/>
<path fill-rule="evenodd" clip-rule="evenodd" d="M6.16667 5.33331C4.78596 5.33331 3.66667 6.4526 3.66667 7.83331V16.1666C3.66667 17.5474 4.78596 18.6666 6.16667 18.6666H17.8333C19.214 18.6666 20.3333 17.5474 20.3333 16.1666V7.83331C20.3333 6.4526 19.214 5.33331 17.8333 5.33331H6.16667ZM5.40943 7.48493C5.54135 7.19867 5.83081 6.99998 6.16667 6.99998H17.8333C18.1692 6.99998 18.4587 7.19867 18.5906 7.48493L12.5116 12.213C12.2107 12.4471 11.7893 12.4471 11.4884 12.213L5.40943 7.48493ZM5.33334 9.53718V14.3874L8.34385 11.8787L5.33334 9.53718ZM5.40242 16.4994C5.53088 16.794 5.82472 17 6.16667 17H17.8333C18.1753 17 18.4691 16.794 18.5976 16.4994L14.3096 12.926L13.5349 13.5286C12.6321 14.2307 11.3679 14.2308 10.4652 13.5286L9.69044 12.926L5.40242 16.4994ZM18.6667 14.3874V9.53718L15.6562 11.8787L18.6667 14.3874Z" fill="#3F8E00"/>
</g>
<defs>
<clipPath id="clip0_4_227">
<rect width="24" height="24" fill="white"/>
</clipPath>
</defs>
</svg>
