<svg width="40" height="40" viewBox="0 0 40 40" fill="none" xmlns="http://www.w3.org/2000/svg">
<circle cx="20" cy="20" r="20" fill="#141313" fill-opacity="0.05"/>
<path fill-rule="evenodd" clip-rule="evenodd" d="M23.5837 19.8793L19.9993 25.7917L16.415 19.8793C14.6764 17.0117 16.6964 13.309 19.9993 13.309C23.3023 13.309 25.3223 17.0117 23.5837 19.8793ZM15.0473 20.7438C12.6454 16.782 15.4361 11.6666 19.9993 11.6666C24.5626 11.6666 27.3533 16.782 24.9514 20.7438L20.5349 28.0287C20.2887 28.4348 19.71 28.4348 19.4638 28.0287L15.0473 20.7438ZM19.9995 15.7727C19.1112 15.7727 18.391 16.508 18.391 17.4151C18.391 18.3222 19.1112 19.0575 19.9995 19.0575C20.8879 19.0575 21.608 18.3222 21.608 17.4151C21.608 16.508 20.8879 15.7727 19.9995 15.7727Z" fill="#3F8E00"/>
</svg>
