<svg width="64" height="52" viewBox="0 0 64 52" fill="none" xmlns="http://www.w3.org/2000/svg">
<path fill-rule="evenodd" clip-rule="evenodd" d="M31.0668 0.161212C31.4436 -0.0517272 31.8867 -0.0538229 32.265 0.155545L63.243 17.2983C64.2168 17.8371 64.2606 19.3876 63.3193 19.9956L52.9456 26.6959V33.713L52.442 33.8628L52.441 33.8631L52.4395 33.8635L52.4345 33.865L52.4176 33.8699C52.4032 33.874 52.3825 33.8799 52.3554 33.8874C52.3012 33.9024 52.2217 33.9239 52.1164 33.9509C51.9058 34.005 51.5924 34.0813 51.1734 34.1724C50.3354 34.3546 49.0754 34.5958 47.3722 34.8364C43.9658 35.3177 38.7873 35.7967 31.6678 35.7967C24.5485 35.7967 19.5372 35.3177 16.2968 34.8358C14.6766 34.5948 13.499 34.3531 12.722 34.1701C12.3335 34.0786 12.0451 34.0018 11.8516 33.9471C11.7548 33.9198 11.6818 33.898 11.6318 33.8826L11.599 33.8725L11.574 33.8646L11.558 33.8594L11.5531 33.8578L11.5515 33.8572C11.5512 33.8572 11.5504 33.8569 11.741 33.1244L11.5504 33.8569L11.0655 33.6957V26.6959L5.32387 22.9874V41.2694C6.21671 41.5804 6.8574 42.4296 6.8574 43.4285C6.8574 44.2243 6.45065 44.9252 5.83369 45.3345C6.04295 45.4804 6.21331 45.655 6.34881 45.8344C6.67827 46.2704 6.80223 46.7302 6.83498 46.8701C6.85265 46.9456 6.8574 47.0134 6.8574 47.069V50.9152C6.8574 51.4092 6.47364 51.8096 6.00026 51.8096H3.14311C2.66973 51.8096 2.28597 51.4092 2.28597 50.9152V47.069C2.28597 47.0134 2.29072 46.9456 2.30839 46.8701C2.34114 46.7302 2.46509 46.2704 2.79456 45.8344C2.93005 45.655 3.10042 45.4804 3.30967 45.3345C2.69272 44.9252 2.28597 44.2243 2.28597 43.4285C2.28597 42.3733 3.00097 41.4851 3.9729 41.222V22.1148L0.680714 19.9884C-0.256133 19.3833 -0.218289 17.8422 0.746811 17.2968L31.0668 0.161212ZM11.0655 24.9371V21.0612C11.0655 20.4278 11.4123 19.836 11.9793 19.6315C13.8028 18.9736 20.8647 16.7089 31.6678 16.7089C42.5091 16.7089 50.08 18.9897 52.0024 19.6339C52.5833 19.8285 52.9456 20.4285 52.9456 21.0768V24.9371L62.649 18.6698L31.671 1.52702L1.35098 18.6626L11.0655 24.9371ZM12.4165 31.8592V21.0767C14.1789 20.4437 21.0845 18.2359 31.6678 18.2359C42.3005 18.2359 49.7209 20.4642 51.5946 21.09V31.9045C51.5054 31.86 51.4102 31.8135 51.309 31.7651C50.459 31.3586 49.1855 30.8226 47.4675 30.2886C44.031 29.2204 38.8202 28.1616 31.6678 28.1616C24.5156 28.1616 19.4704 29.2203 16.1971 30.2913C14.5608 30.8267 13.3685 31.3648 12.5783 31.7742C12.5224 31.8032 12.4684 31.8315 12.4165 31.8592ZM13.7802 32.8483C14.4708 32.9922 15.3637 33.1568 16.4731 33.3218C19.6498 33.7943 24.6019 34.2697 31.6678 34.2697C38.7336 34.2697 43.8561 33.7943 47.2046 33.3212C48.3732 33.1561 49.3257 32.9912 50.0694 32.847C49.3178 32.5211 48.3339 32.1416 47.1093 31.7609C43.791 30.7295 38.7006 29.6886 31.6678 29.6886C24.6348 29.6886 19.7166 30.7295 16.5728 31.7581C15.4026 32.141 14.4776 32.5224 13.7802 32.8483ZM4.57168 42.2856C3.9405 42.2856 3.42883 42.7973 3.42883 43.4285C3.42883 44.0596 3.9405 44.5713 4.57168 44.5713C5.20287 44.5713 5.71454 44.0596 5.71454 43.4285C5.71454 42.7973 5.20287 42.2856 4.57168 42.2856ZM3.42883 50.6171V47.1134C3.45704 47.0116 3.53388 46.782 3.69205 46.5727C3.86138 46.3486 4.1213 46.145 4.57168 46.145C5.02206 46.145 5.28199 46.3486 5.45132 46.5727C5.60949 46.782 5.68633 47.0116 5.71454 47.1134V50.6171H3.42883Z" fill="url(#paint0_linear_47_341)"/>
<defs>
<linearGradient id="paint0_linear_47_341" x1="55.2381" y1="-1.75666e-07" x2="3.80953" y2="55.6191" gradientUnits="userSpaceOnUse">
<stop stop-color="white"/>
<stop offset="1" stop-color="#5C5C5C"/>
</linearGradient>
</defs>
</svg>
