<svg width="25" height="24" viewBox="0 0 25 24" fill="none" xmlns="http://www.w3.org/2000/svg">
<path fill-rule="evenodd" clip-rule="evenodd" d="M13 23C19.0751 23 24 18.0751 24 12C24 5.92487 19.0751 1 13 1C6.92487 1 2 5.92487 2 12C2 14.1597 2.62238 16.174 3.69757 17.8733L2 22.5417L7.29524 21.407C8.95859 22.4179 10.9113 23 13 23Z" fill="white"/>
<path d="M3.69757 17.8733L4.63737 18.2151L4.80517 17.7536L4.54263 17.3387L3.69757 17.8733ZM2 22.5417L1.06021 22.1999L0.442696 23.8981L2.20953 23.5195L2 22.5417ZM7.29524 21.407L7.81459 20.5524L7.47466 20.3458L7.08571 20.4292L7.29524 21.407ZM23 12C23 17.5228 18.5228 22 13 22V24C19.6274 24 25 18.6274 25 12H23ZM13 2C18.5228 2 23 6.47715 23 12H25C25 5.37258 19.6274 0 13 0V2ZM3 12C3 6.47715 7.47715 2 13 2V0C6.37258 0 1 5.37258 1 12H3ZM4.54263 17.3387C3.56567 15.7945 3 13.9649 3 12H1C1 14.3545 1.6791 16.5534 2.85251 18.408L4.54263 17.3387ZM2.93979 22.8834L4.63737 18.2151L2.75778 17.5316L1.06021 22.1999L2.93979 22.8834ZM7.08571 20.4292L1.79047 21.5639L2.20953 23.5195L7.50477 22.3848L7.08571 20.4292ZM13 22C11.0996 22 9.32585 21.4709 7.81459 20.5524L6.77589 22.2615C8.59134 23.3649 10.723 24 13 24V22Z" fill="white"/>
<path d="M14.28 14.8387C12.3892 14.6485 10.8479 12.4871 10.1454 11.1068C10.0349 10.8897 10.1121 10.6284 10.3147 10.4933L10.9929 10.0412C11.1935 9.9075 11.2701 9.64976 11.1751 9.42822L10.0607 6.82788C9.9997 6.68552 9.87648 6.57891 9.72386 6.55255C9.4254 6.50099 8.91558 6.44745 8.58897 6.60216C8.00574 6.87843 7.90528 7.37532 7.67231 7.97716C7.30724 8.92024 7.62969 10.5256 7.66858 10.7098C7.6711 10.7217 7.67408 10.7331 7.67762 10.7448C8.77951 14.3859 12.3819 16.5165 14.0686 17.1364C14.0826 17.1415 14.0951 17.1467 14.1087 17.1529C14.2597 17.2214 15.2445 17.6543 15.9223 17.6022C16.9629 17.5221 17.8702 17.2126 18.214 16.2272C18.3324 15.8877 18.2922 15.3863 18.2528 15.0921C18.2323 14.9398 18.1337 14.812 17.9962 14.7433L15.8588 13.6746C15.6332 13.5618 15.359 13.6346 15.2191 13.8444L14.6957 14.6295C14.603 14.7686 14.4463 14.8554 14.28 14.8387Z" fill="#3F8E00" stroke="#3F8E00" stroke-linejoin="round"/>
</svg>
